<?xml version="1.0" standalone="no"?>
<!DOCTYPE svg PUBLIC "-//W3C//DTD SVG 20010904//EN"
 "http://www.w3.org/TR/2001/REC-SVG-20010904/DTD/svg10.dtd">
<svg version="1.0" xmlns="http://www.w3.org/2000/svg"
 width="700.000000pt" height="700.000000pt" viewBox="0 0 700.000000 700.000000"
 preserveAspectRatio="xMidYMid meet">
<metadata>
Created by potrace 1.11, written by Peter Selinger 2001-2013
</metadata>
<g transform="translate(0.000000,700.000000) scale(0.100000,-0.100000)"
fill="#000000" stroke="none">
<path d="M3278 6995 c-2 -1 -39 -5 -83 -9 -125 -10 -276 -30 -377 -50 -7 -2
-31 -6 -53 -11 -69 -13 -266 -65 -365 -97 -249 -79 -562 -228 -802 -382 -80
-51 -152 -99 -160 -105 -7 -6 -71 -57 -143 -113 -134 -106 -365 -328 -472
-454 -353 -417 -595 -887 -733 -1422 -17 -68 -34 -135 -36 -150 -2 -15 -7 -38
-9 -52 -10 -47 -13 -65 -19 -110 -4 -25 -11 -72 -16 -105 -10 -67 -7 -865 3
-905 4 -14 10 -45 13 -70 3 -25 7 -52 9 -60 3 -8 7 -32 11 -54 24 -157 96
-410 175 -613 47 -123 179 -399 233 -487 20 -32 36 -62 36 -67 0 -5 5 -9 10
-9 6 0 10 -5 10 -10 0 -19 141 -221 245 -350 89 -112 334 -369 425 -445 215
-182 383 -300 590 -416 359 -201 786 -352 1145 -404 22 -3 54 -8 70 -11 198
-35 774 -40 937 -9 12 3 39 7 60 10 49 8 194 32 233 40 127 25 462 127 560
170 17 8 59 26 95 41 261 107 578 301 840 512 89 73 325 300 400 387 186 212
348 450 480 700 40 77 67 136 155 340 23 53 103 301 125 384 42 166 69 315 95
521 17 130 22 433 11 600 -7 102 -9 127 -21 220 -4 25 -8 61 -11 80 -17 135
-78 388 -134 560 -341 1045 -1175 1882 -2219 2230 -124 41 -317 94 -383 104
-21 3 -57 10 -80 15 -24 5 -61 12 -83 15 -23 4 -50 8 -60 10 -11 2 -54 7 -95
11 -41 4 -84 9 -95 12 -21 5 -512 13 -517 8z"/>
</g>
</svg>
