<?xml version="1.0" encoding="UTF-8" standalone="no"?>
<svg
   xmlns:dc="http://purl.org/dc/elements/1.1/"
   xmlns:cc="http://creativecommons.org/ns#"
   xmlns:rdf="http://www.w3.org/1999/02/22-rdf-syntax-ns#"
   xmlns:svg="http://www.w3.org/2000/svg"
   xmlns="http://www.w3.org/2000/svg"
   xmlns:sodipodi="http://sodipodi.sourceforge.net/DTD/sodipodi-0.dtd"
   xmlns:inkscape="http://www.inkscape.org/namespaces/inkscape"
   width="38"
   height="38"
   viewBox="0 0 38 38.000001"
   version="1.1"
   id="svg6"
   sodipodi:docname="24px (1).svg"
   inkscape:version="0.92.3 (2405546, 2018-03-11)">
  <metadata
     id="metadata12">
    <rdf:RDF>
      <cc:Work
         rdf:about="">
        <dc:format>image/svg+xml</dc:format>
        <dc:type
           rdf:resource="http://purl.org/dc/dcmitype/StillImage" />
      </cc:Work>
    </rdf:RDF>
  </metadata>
  <defs
     id="defs10" />
  <sodipodi:namedview
     pagecolor="#ffffff"
     bordercolor="#666666"
     borderopacity="1"
     objecttolerance="10"
     gridtolerance="10"
     guidetolerance="10"
     inkscape:pageopacity="0"
     inkscape:pageshadow="2"
     inkscape:window-width="2560"
     inkscape:window-height="1377"
     id="namedview8"
     showgrid="false"
     inkscape:zoom="11.313708"
     inkscape:cx="16.053276"
     inkscape:cy="5.6883501"
     inkscape:window-x="-8"
     inkscape:window-y="-8"
     inkscape:window-maximized="1"
     inkscape:current-layer="svg6" />
  <path
     d="M 6.9142152,7.0057238 H 30.914215 V 31.005724 H 6.9142152 Z"
     id="path4"
     inkscape:connector-curvature="0"
     style="fill:none" />
  <circle
     style="opacity:1;fill:#ffffff;fill-opacity:1;fill-rule:evenodd;stroke:#00000f;stroke-width:0;stroke-linejoin:round;stroke-miterlimit:4;stroke-dasharray:none;stroke-opacity:0.94117647"
     id="path1423"
     cx="18.914215"
     cy="19.005724"
     r="19" />
  <g
     id="g1421"
     style="fill:#007bff;fill-opacity:1"
     transform="translate(1.0413336,8.4887748)">
    <path
       id="path2"
       d="m 17,20 c -0.29,0 -0.56,-0.06 -0.76,-0.15 -0.71,-0.37 -1.21,-0.88 -1.71,-2.38 -0.51,-1.56 -1.47,-2.29 -2.39,-3 C 11.35,13.86 10.53,13.23 9.82,11.94 9.29,10.98 9,9.93 9,9 9,6.2 11.2,4 14,4 c 2.8,0 5,2.2 5,5 h 2 C 21,5.07 17.93,2 14,2 10.07,2 7,5.07 7,9 c 0,1.26 0.38,2.65 1.07,3.9 0.91,1.65 1.98,2.48 2.85,3.15 0.81,0.62 1.39,1.07 1.71,2.05 0.6,1.82 1.37,2.84 2.73,3.55 0.51,0.23 1.07,0.35 1.64,0.35 2.21,0 4,-1.79 4,-4 h -2 c 0,1.1 -0.9,2 -2,2 z M 7.64,2.64 6.22,1.22 C 4.23,3.21 3,5.96 3,9 c 0,3.04 1.23,5.79 3.22,7.78 L 7.63,15.37 C 6.01,13.74 5,11.49 5,9 5,6.51 6.01,4.26 7.64,2.64 Z M 11.5,9 c 0,1.38 1.12,2.5 2.5,2.5 1.38,0 2.5,-1.12 2.5,-2.5 0,-1.38 -1.12,-2.5 -2.5,-2.5 -1.38,0 -2.5,1.12 -2.5,2.5 z"
       style="fill:#007bff;fill-opacity:1"
       inkscape:connector-curvature="0" />
    <path
       id="path848"
       d="M 26.745763,-0.96610167 V 9.5838979 c -0.59,-0.34 -1.27,-0.55 -2,-0.55 -2.21,0 -4,1.7900001 -4,4.0000001 0,2.21 1.79,4 4,4 2.21,0 4,-1.79 4,-4 V 3.0338979 h 4 v -3.99999957 z"
       inkscape:connector-curvature="0"
       style="fill:#007bff;fill-opacity:1" />
  </g>
</svg>
